<?xml version="1.0" standalone="no"?>
<!DOCTYPE svg PUBLIC "-//W3C//DTD SVG 20010904//EN"
 "http://www.w3.org/TR/2001/REC-SVG-20010904/DTD/svg10.dtd">
<svg version="1.0" xmlns="http://www.w3.org/2000/svg"
 width="700.000000pt" height="700.000000pt" viewBox="0 0 700.000000 700.000000"
 preserveAspectRatio="xMidYMid meet">
<metadata>
Created by potrace 1.11, written by Peter Selinger 2001-2013
</metadata>
<g transform="translate(0.000000,700.000000) scale(0.100000,-0.100000)"
fill="#000000" stroke="none">
<path d="M3008 6995 c-2 -1 -75 -5 -163 -9 -155 -6 -191 -9 -340 -21 -95 -8
-152 -14 -201 -20 -22 -3 -63 -8 -90 -11 -27 -2 -56 -6 -64 -8 -8 -1 -37 -6
-65 -10 -27 -4 -61 -10 -75 -12 -14 -3 -38 -7 -55 -10 -290 -50 -608 -160
-815 -283 -266 -157 -457 -397 -530 -664 -60 -217 -57 -133 -58 -2159 0 -1080
4 -1887 9 -1915 5 -26 14 -73 20 -103 15 -79 64 -221 105 -303 97 -197 280
-404 459 -518 186 -119 400 -194 595 -206 47 -3 87 -7 90 -10 2 -2 -118 -126
-268 -276 l-272 -272 0 -93 0 -92 2210 0 2210 0 0 92 0 93 -276 276 c-264 264
-274 276 -242 276 216 1 463 82 673 221 301 198 511 528 569 892 12 70 14 419
12 1970 -2 2038 0 1936 -53 2120 -88 305 -308 561 -617 718 -50 25 -93 47 -96
47 -3 1 -25 11 -50 22 -181 81 -550 172 -850 208 -25 3 -61 8 -80 10 -19 2
-62 7 -95 10 -33 3 -80 7 -105 9 -25 3 -90 8 -145 12 -55 3 -125 8 -155 11
-63 4 -1187 12 -1192 8z m122 -2389 l0 -921 -920 0 -920 0 0 921 0 920 920 0
920 1 0 -921z m2580 0 l0 -921 -920 0 -920 0 0 916 c0 504 2 918 5 920 2 3
416 5 920 5 l915 0 0 -920z m-3719 -2049 c203 -66 354 -233 393 -437 60 -313
-196 -630 -519 -644 -303 -14 -582 259 -574 559 4 138 53 254 153 361 116 125
257 186 416 179 47 -2 106 -10 131 -18z m3330 -7 c167 -56 301 -189 360 -356
78 -221 -16 -486 -221 -623 -126 -84 -267 -114 -397 -86 -125 27 -193 65 -289
160 -86 86 -129 160 -154 265 -12 50 -16 173 -7 210 15 61 22 81 45 130 71
153 225 279 385 315 81 19 196 12 278 -15z"/>
</g>
</svg>
